<?xml version="1.0" encoding="UTF-8"?>
<svg version="1.1" xmlns="http://www.w3.org/2000/svg" width="512" height="512">
<path d="M0 0 C1.25916159 0.6143407 2.51860862 1.22809667 3.77832031 1.84130859 C6.38652372 3.11151672 8.99350449 4.3841836 11.59960938 5.65869141 C17.20095076 8.39571842 22.81653892 11.10318379 28.43212891 13.81082153 C30.25580375 14.69029889 32.07912223 15.57051104 33.90234375 16.45092773 C42.61094771 20.65564495 51.32791533 24.84277084 60.04785156 29.02392578 C68.65265717 33.15155627 77.24774227 37.29917561 85.84042358 41.45196533 C93.42577804 45.11786449 101.01675462 48.77163541 108.61669922 52.40722656 C112.68227526 54.35398215 116.74372506 56.30923062 120.80419922 58.26660156 C123.27346774 59.45360367 125.74767252 60.62966837 128.22265625 61.8046875 C146.61666691 70.62868507 162.11387489 83.37612559 169.80389404 102.86737061 C173.06697618 112.67687714 175.52415414 122.5535636 177.765625 132.640625 C178.16015574 134.388162 178.55539873 136.13553833 178.95129395 137.88276672 C180.00804907 142.55563655 181.05547545 147.23054495 182.10020447 151.90611649 C183.86544423 159.80162127 185.64176523 167.6946492 187.4159317 175.58815193 C187.86884917 177.60431985 188.32135689 179.62057986 188.77346039 181.63693047 C191.76705494 194.98737753 194.83011317 208.31895935 197.97901154 221.6336174 C199.1788489 226.71736146 200.36551243 231.80420015 201.55236435 236.8909893 C202.48035528 240.862227 203.41729554 244.83087942 204.37609863 248.7947998 C211.21564458 277.10880397 215.11294037 303.16889517 199.78808594 329.53759766 C196.11016734 335.31937493 191.56169885 340.46606503 187.11083984 345.65722656 C184.65615373 348.56058674 182.32849946 351.55772256 180 354.5625 C176.10711476 359.55507034 172.13552242 364.47656546 168.125 369.375 C163.65826178 374.83537441 159.31931705 380.37464341 155.0625 386 C150.06347568 392.602285 144.88366203 399.02634358 139.59228516 405.39599609 C135.51482228 410.30962856 131.53731328 415.28874865 127.61279297 420.32495117 C124.13101761 424.7837878 120.57736 429.18008978 117 433.5625 C112.86559266 438.62792636 108.77651431 443.72336742 104.75 448.875 C91.86158312 465.34456554 91.86158312 465.34456554 85.5 471.5625 C85.00757813 472.06394531 84.51515625 472.56539063 84.0078125 473.08203125 C71.07221259 485.17718258 52.41767167 490.6623891 35.07751465 490.70294189 C34.36341195 490.70591302 33.64930924 490.70888414 32.91356707 490.7119453 C30.53806903 490.72056627 28.16262177 490.72213493 25.78710938 490.72363281 C24.07644546 490.7282658 22.36578256 490.7332911 20.65512085 490.73867798 C16.01831282 490.75176071 11.38151925 490.75823926 6.74469566 490.76268864 C3.84176314 490.76562701 0.93883449 490.76973332 -1.96409607 490.77419281 C-11.06397371 490.78785903 -20.16384239 490.79752906 -29.26372957 490.8013947 C-39.73544012 490.80586858 -50.20701969 490.82338903 -60.67869043 490.8523953 C-68.79365122 490.87408575 -76.90857537 490.88410295 -85.02356482 490.88543582 C-89.86026907 490.8864789 -94.69685007 490.89227975 -99.53352356 490.91025543 C-104.09067535 490.92686319 -108.64761292 490.9288307 -113.20478439 490.92011642 C-114.86587985 490.9193527 -116.52698745 490.92359958 -118.18805313 490.93357468 C-139.91284197 491.05625433 -162.35455841 486.349154 -178.5 470.5625 C-181.13120695 467.52524259 -183.64736434 464.4045965 -186.14599609 461.2578125 C-187.61226901 459.42193094 -189.09517871 457.60050097 -190.58203125 455.78125 C-196.23844376 448.85975467 -201.83400899 441.89755796 -207.33544922 434.85229492 C-210.83732049 430.37852474 -214.40804211 425.96415077 -218 421.5625 C-224.38153998 413.73905867 -230.62199109 405.81177935 -236.83398438 397.85351562 C-242.69893605 390.34466508 -248.63955026 382.90587472 -254.66357422 375.52392578 C-258.61134298 370.67835234 -262.48986586 365.78370074 -266.33154297 360.85375977 C-269.31288614 357.03934661 -272.35989926 353.28572949 -275.43920898 349.55004883 C-293.93287137 327.06036265 -303.60359799 307.03004497 -301.5 277.5625 C-300.42746895 269.34300986 -298.42223029 261.30824819 -296.48828125 253.2578125 C-295.96058303 250.97804813 -295.43516756 248.69775435 -294.91186523 246.41697693 C-293.52542161 240.40157853 -292.10907238 234.39362548 -290.68588638 228.38682938 C-289.22075765 222.18110661 -287.78265645 215.96913164 -286.3425293 209.75756836 C-284.35884913 201.21069931 -282.36702986 192.66581778 -280.36385822 184.12349606 C-277.55908052 172.15831598 -274.81427519 160.18218567 -272.15625 148.18359375 C-271.85278407 146.81909948 -271.54917377 145.45463731 -271.2454071 144.09020996 C-269.65333431 136.93354972 -269.65333431 136.93354972 -268.08218384 129.77227783 C-264.44102945 113.09131171 -260.64379315 97.98850909 -249.5 84.5625 C-248.82195312 83.71042969 -248.14390625 82.85835938 -247.4453125 81.98046875 C-237.77045945 70.44506703 -225.00062945 63.95628551 -211.625 57.6875 C-210.15671876 56.98885917 -208.68895201 56.28913615 -207.22167969 55.58837891 C-204.3143636 54.20192189 -201.40433234 52.82148265 -198.49121094 51.44726562 C-194.13755955 49.39341787 -189.79561006 47.31554447 -185.45507812 45.23413086 C-182.73463565 43.93013537 -180.01198529 42.63083833 -177.2890625 41.33203125 C-170.5578926 38.11670611 -163.84148816 34.87084158 -157.125 31.625 C-147.07908059 26.77033788 -137.02702692 21.92878106 -126.96459961 17.10839844 C-121.36924871 14.42618967 -115.78037919 11.73114008 -110.19921875 9.01953125 C-88.22498058 -1.65305708 -88.22498058 -1.65305708 -77.25 -6.6875 C-76.48324951 -7.04610107 -75.71649902 -7.40470215 -74.92651367 -7.77416992 C-49.28688312 -19.37039887 -23.89589346 -11.75571902 0 0 Z " fill="#FE6E37" transform="translate(301.5,17.4375)"/>
<path d="M0 0 C13.48654984 0.96332499 23.14598378 2.77939565 35 8.375 C35.98347412 8.83197266 36.96694824 9.28894531 37.98022461 9.75976562 C52.69785332 16.65596366 67.26253251 23.880296 81.85546875 31.03515625 C90.20588469 35.12919184 98.57576202 39.17764466 106.97338867 43.17407227 C115.07417949 47.02930011 123.15296572 50.92961191 131.23001099 54.83425903 C138.85355703 58.51946226 146.4824831 62.19300806 154.12109375 65.84692383 C158.18523925 67.79287599 162.24519991 69.74744158 166.30419922 71.70410156 C168.77346774 72.89110367 171.24767252 74.06716837 173.72265625 75.2421875 C192.11666691 84.06618507 207.61387489 96.81362559 215.30389404 116.30487061 C218.56697618 126.11437714 221.02415414 135.9910636 223.265625 146.078125 C223.66015574 147.825662 224.05539873 149.57303833 224.45129395 151.32026672 C225.50804907 155.99313655 226.55547545 160.66804495 227.60020447 165.34361649 C229.36544423 173.23912127 231.14176523 181.1321492 232.9159317 189.02565193 C233.36884917 191.04181985 233.82135689 193.05807986 234.27346039 195.07443047 C237.26705494 208.42487753 240.33011317 221.75645935 243.47901154 235.0711174 C244.6788489 240.15486146 245.86551243 245.24170015 247.05236435 250.3284893 C247.98035528 254.299727 248.91729554 258.26837942 249.87609863 262.2322998 C256.71564458 290.54630397 260.61294037 316.60639517 245.28808594 342.97509766 C241.61016734 348.75687493 237.06169885 353.90356503 232.61083984 359.09472656 C230.15615373 361.99808674 227.82849946 364.99522256 225.5 368 C221.60711476 372.99257034 217.63552242 377.91406546 213.625 382.8125 C209.15826178 388.27287441 204.81931705 393.81214341 200.5625 399.4375 C195.56347568 406.039785 190.38366203 412.46384358 185.09228516 418.83349609 C181.01482228 423.74712856 177.03731328 428.72624865 173.11279297 433.76245117 C169.63101761 438.2212878 166.07736 442.61758978 162.5 447 C158.36559266 452.06542636 154.27651431 457.16086742 150.25 462.3125 C137.36158312 478.78206554 137.36158312 478.78206554 131 485 C130.50757813 485.50144531 130.01515625 486.00289063 129.5078125 486.51953125 C97.34649086 516.5912755 31.86212237 504 0 504 C0 443.94 0 383.88 0 322 C7.59 322 15.18 322 23 322 C23 349.06 23 376.12 23 404 C37.52 404 52.04 404 67 404 C67 335.03 67 266.06 67 195 C52.48 195 37.96 195 23 195 C23 222.06 23 249.12 23 277 C15.41 277 7.82 277 0 277 C0 240.04 0 203.08 0 165 C22.44 165 44.88 165 68 165 C68 149.82 68 134.64 68 119 C45.56 119 23.12 119 0 119 C0 79.73 0 40.46 0 0 Z " fill="#FE4B37" transform="translate(256,4)"/>
<path d="M0 0 C0.87760986 -0.00315216 1.75521973 -0.00630432 2.65942383 -0.009552 C3.61357178 -0.00752777 4.56771973 -0.00550354 5.55078125 -0.00341797 C6.52362061 -0.00437469 7.49645996 -0.00533142 8.4987793 -0.00631714 C10.56005925 -0.00699905 12.62134133 -0.00514399 14.68261719 -0.00097656 C17.84965813 0.00437153 21.01655725 -0.00092119 24.18359375 -0.00732422 C26.1809899 -0.00666344 28.17838596 -0.00538228 30.17578125 -0.00341797 C31.1299292 -0.0054422 32.08407715 -0.00746643 33.06713867 -0.009552 C34.38355347 -0.00482376 34.38355347 -0.00482376 35.7265625 0 C36.50298096 0.00079559 37.27939941 0.00159119 38.0793457 0.00241089 C39.86328125 0.12939453 39.86328125 0.12939453 40.86328125 1.12939453 C40.95834177 3.68529341 40.98884886 6.21407425 40.97680664 8.77026367 C40.97695267 9.57020248 40.97709869 10.3701413 40.97724915 11.19432068 C40.9765498 13.85109118 40.96875643 16.50779246 40.9609375 19.16455078 C40.9590734 21.00158144 40.95764946 22.83861259 40.95664978 24.67564392 C40.952824 29.52049116 40.94299321 34.36530861 40.9319458 39.21014404 C40.91993867 45.0179101 40.91532973 50.82568609 40.90949249 56.633461 C40.89978148 65.46545958 40.88062535 74.29739277 40.86328125 83.12939453 C55.71328125 83.12939453 70.56328125 83.12939453 85.86328125 83.12939453 C85.86328125 56.06939453 85.86328125 29.00939453 85.86328125 1.12939453 C100.38328125 1.12939453 114.90328125 1.12939453 129.86328125 1.12939453 C129.86328125 70.09939453 129.86328125 139.06939453 129.86328125 210.12939453 C115.34328125 210.12939453 100.82328125 210.12939453 85.86328125 210.12939453 C85.86328125 183.06939453 85.86328125 156.00939453 85.86328125 128.12939453 C71.01328125 128.12939453 56.16328125 128.12939453 40.86328125 128.12939453 C40.87488281 134.03716797 40.88648438 139.94494141 40.8984375 146.03173828 C40.90354425 149.76416125 40.90835802 153.49657993 40.91210938 157.22900391 C40.91809785 163.15927011 40.92519828 169.08952095 40.9387207 175.01977539 C40.94954947 179.79838289 40.95555806 184.57697391 40.95815849 189.35559273 C40.96001276 191.18293073 40.96363341 193.01026778 40.96901131 194.8375988 C40.97622161 197.38792782 40.9772722 199.9381879 40.97680664 202.48852539 C40.98040192 203.25169067 40.98399719 204.01485596 40.98770142 204.80114746 C40.97733341 210.01534237 40.97733341 210.01534237 39.86328125 211.12939453 C38.48718243 211.22734764 37.10614243 211.25737541 35.7265625 211.25878906 C34.41014771 211.2635173 34.41014771 211.2635173 33.06713867 211.26834106 C32.11299072 211.26631683 31.15884277 211.2642926 30.17578125 211.26220703 C28.71652222 211.26364212 28.71652222 211.26364212 27.2277832 211.2651062 C25.16650325 211.26578811 23.10522117 211.26393306 21.04394531 211.25976562 C17.87690437 211.25441754 14.71000525 211.25971025 11.54296875 211.26611328 C9.5455726 211.2654525 7.54817654 211.26417134 5.55078125 211.26220703 C4.5966333 211.26423126 3.64248535 211.26625549 2.65942383 211.26834106 C1.78181396 211.2651889 0.9042041 211.26203674 0 211.25878906 C-0.77641846 211.25799347 -1.55283691 211.25719788 -2.3527832 211.25637817 C-4.13671875 211.12939453 -4.13671875 211.12939453 -5.13671875 210.12939453 C-5.23678137 207.43837936 -5.27111837 204.77295972 -5.26370239 202.0814209 C-5.26526238 201.2278096 -5.26682237 200.37419829 -5.26842964 199.49471998 C-5.27244336 196.61185997 -5.26924856 193.72905189 -5.26611328 190.84619141 C-5.26746716 188.78857899 -5.26924701 186.73096681 -5.27142334 184.6733551 C-5.2759993 179.06814803 -5.27420745 173.46295926 -5.27104425 167.85775185 C-5.26852149 162.00587538 -5.27085796 156.15400054 -5.27243042 150.30212402 C-5.27425236 140.47289751 -5.27184516 130.6436785 -5.26708984 120.81445312 C-5.26164718 109.43268403 -5.26340982 98.05093284 -5.26891625 86.66916418 C-5.27344668 76.91634133 -5.27409827 67.16352388 -5.27147758 57.41070032 C-5.26991442 51.57729963 -5.2697221 45.74390736 -5.27301407 39.9105072 C-5.27589177 34.42769973 -5.27391895 28.94491547 -5.26811981 23.46211052 C-5.26679167 21.44360836 -5.26718724 19.42510426 -5.26938248 17.40660286 C-5.27209187 14.66349779 -5.26871546 11.92046834 -5.26370239 9.17736816 C-5.26593311 8.36775493 -5.26816384 7.5581417 -5.27046216 6.72399473 C-5.24644192 0.00537601 -5.24644192 0.00537601 0 0 Z " fill="#FFFBFA" transform="translate(193.13671875,197.87060546875)"/>
<path d="M0 0 C14.52 0 29.04 0 44 0 C44 68.97 44 137.94 44 209 C29.48 209 14.96 209 0 209 C0 181.94 0 154.88 0 127 C-7.59 127 -15.18 127 -23 127 C-23 112.15 -23 97.3 -23 82 C-15.41 82 -7.82 82 0 82 C0 54.94 0 27.88 0 0 Z " fill="#EFF6F9" transform="translate(279,199)"/>
<path d="M0 0 C44.55 0 89.1 0 135 0 C135 14.52 135 29.04 135 44 C90.45 44 45.9 44 0 44 C0 29.48 0 14.96 0 0 Z " fill="#FFFDFD" transform="translate(188,124)"/>
<path d="M0 0 C22.11 0 44.22 0 67 0 C67 14.52 67 29.04 67 44 C44.89 44 22.78 44 0 44 C0 29.48 0 14.96 0 0 Z " fill="#EFF6F9" transform="translate(256,124)"/>
</svg>
